<?xml version="1.0" encoding="UTF-8"?>
<svg width="1200" height="400" viewBox="0 0 1200 400" fill="none" xmlns="http://www.w3.org/2000/svg">
    <rect width="1200" height="400" fill="#E5E7EB"/>
    <g transform="translate(520,120) scale(2.5)">
        <path d="M13.333 13.333h5.334v5.334h-5.334v-5.334zM6.667 26.667h5.333V32H6.667v-5.333zm13.333 0h5.333V32H20v-5.333zM6.667 20h5.333v5.333H6.667V20zm13.333 0h5.333v5.333H20V20zm-13.333-6.667h5.333v5.334H6.667v-5.334zm26.666-10.666H28V0h-2.667v2.667H14.667V0H12v2.667H6.667C5.2 2.667 4 3.867 4 5.333v29.334C4 36.133 5.2 37.333 6.667 37.333h26.666C34.8 37.333 36 36.133 36 34.667V5.333c0-1.466-1.2-2.666-2.667-2.666zm0 32H6.667V10.667h26.666v24z" fill="#9CA3AF"/>
    </g>
    <path d="M560 220H640V200H560V220ZM560 260H640V240H560V260Z" fill="#9CA3AF"/>
</svg>